<svg xmlns="http://www.w3.org/2000/svg" viewBox="0 0 1200 630" width="1200" height="630">
  <defs>
    <radialGradient id="og-bg" cx="40%" cy="35%" r="70%">
      <stop offset="0%" stop-color="#0f1240"/>
      <stop offset="55%" stop-color="#080a1e"/>
      <stop offset="100%" stop-color="#040610"/>
    </radialGradient>
    <radialGradient id="og-orb1" cx="50%" cy="50%" r="50%">
      <stop offset="0%" stop-color="#6366f1" stop-opacity="0.35"/>
      <stop offset="100%" stop-color="#6366f1" stop-opacity="0"/>
    </radialGradient>
    <radialGradient id="og-orb2" cx="50%" cy="50%" r="50%">
      <stop offset="0%" stop-color="#8b5cf6" stop-opacity="0.22"/>
      <stop offset="100%" stop-color="#8b5cf6" stop-opacity="0"/>
    </radialGradient>
    <radialGradient id="og-orb3" cx="50%" cy="50%" r="50%">
      <stop offset="0%" stop-color="#0ea5e9" stop-opacity="0.16"/>
      <stop offset="100%" stop-color="#0ea5e9" stop-opacity="0"/>
    </radialGradient>
    <linearGradient id="og-grad" x1="0%" y1="0%" x2="100%" y2="100%">
      <stop offset="0%" stop-color="#6c5ce7"/>
      <stop offset="50%" stop-color="#7c4dff"/>
      <stop offset="100%" stop-color="#8e7cff"/>
    </linearGradient>
    <linearGradient id="og-line-g" x1="0" y1="0" x2="1" y2="0">
      <stop offset="0%" stop-color="#6366f1"/>
      <stop offset="100%" stop-color="#8b5cf6"/>
    </linearGradient>
    <linearGradient id="og-fill-g" x1="0" y1="0" x2="0" y2="1">
      <stop offset="0%" stop-color="#6366f1" stop-opacity="0.36"/>
      <stop offset="100%" stop-color="#6366f1" stop-opacity="0"/>
    </linearGradient>
    <linearGradient id="og-panel-g" x1="0" y1="0" x2="0" y2="1">
      <stop offset="0%" stop-color="#141c32"/>
      <stop offset="100%" stop-color="#0d1225"/>
    </linearGradient>
    <linearGradient id="og-text-g" x1="0%" y1="0%" x2="100%" y2="100%">
      <stop offset="0%" stop-color="#e8e9ff"/>
      <stop offset="100%" stop-color="#c4b5fd"/>
    </linearGradient>

    <filter id="og-glow" x="-100%" y="-100%" width="300%" height="300%">
      <feGaussianBlur stdDeviation="6" result="b"/>
      <feMerge><feMergeNode in="b"/><feMergeNode in="SourceGraphic"/></feMerge>
    </filter>
    <filter id="og-panel-shadow" x="-5%" y="-5%" width="110%" height="120%">
      <feDropShadow dx="0" dy="20" stdDeviation="40" flood-color="#6366f1" flood-opacity="0.12"/>
      <feDropShadow dx="0" dy="8" stdDeviation="20" flood-color="#000" flood-opacity="0.5"/>
    </filter>
    <filter id="og-float-shadow" x="-15%" y="-15%" width="130%" height="140%">
      <feDropShadow dx="0" dy="8" stdDeviation="16" flood-color="#000" flood-opacity="0.5"/>
    </filter>

    <pattern id="og-dots" x="0" y="0" width="28" height="28" patternUnits="userSpaceOnUse">
      <circle cx="1" cy="1" r="1" fill="#6366f1" opacity="0.10"/>
    </pattern>

    <clipPath id="og-panel-clip">
      <rect x="560" y="60" width="600" height="510" rx="14"/>
    </clipPath>
    <clipPath id="og-chart-clip">
      <rect x="572" y="270" width="576" height="170"/>
    </clipPath>
  </defs>

  <!-- Background -->
  <rect width="1200" height="630" fill="url(#og-bg)"/>
  <rect width="1200" height="630" fill="url(#og-dots)"/>

  <!-- Ambient orbs -->
  <ellipse cx="350" cy="280" rx="500" ry="380" fill="url(#og-orb1)"/>
  <ellipse cx="1050" cy="520" rx="340" ry="260" fill="url(#og-orb2)"/>
  <ellipse cx="950" cy="120" rx="280" ry="220" fill="url(#og-orb3)"/>

  <!-- ── LEFT SIDE: BRAND + COPY ── -->
  <!-- Logo block -->
  <rect x="60" y="60" width="18" height="18" rx="4" fill="#6366f1"/>
  <rect x="84" y="60" width="18" height="18" rx="4" fill="#6366f1" fill-opacity="0.55"/>
  <rect x="60" y="84" width="18" height="18" rx="4" fill="#6366f1" fill-opacity="0.30"/>
  <rect x="84" y="84" width="18" height="18" rx="4" fill="#6366f1" fill-opacity="0.15"/>
  <text x="114" y="80" fill="#f1f5f9" font-family="system-ui,sans-serif" font-size="22" font-weight="700" letter-spacing="-0.02em">BaseBox</text>

  <!-- Eyebrow pill -->
  <rect x="60" y="158" width="180" height="26" rx="13" fill="#6366f1" fill-opacity="0.10"/>
  <rect x="60" y="158" width="180" height="26" rx="13" fill="none" stroke="#6366f1" stroke-width="1" stroke-opacity="0.30"/>
  <circle cx="80" cy="171" r="4" fill="#10b981"/>
  <text x="94" y="176" fill="#94a3b8" font-family="system-ui,sans-serif" font-size="12" font-weight="600" letter-spacing="0.06em">SaaS STARTER TEMPLATE</text>

  <!-- Main headline -->
  <text x="60" y="248" fill="url(#og-text-g)" font-family="system-ui,sans-serif" font-size="56" font-weight="800" letter-spacing="-0.03em">Ship your</text>
  <text x="60" y="316" fill="url(#og-grad)" font-family="system-ui,sans-serif" font-size="56" font-weight="800" letter-spacing="-0.03em">SaaS faster.</text>

  <!-- Sub copy -->
  <text x="60" y="364" fill="#64748b" font-family="system-ui,sans-serif" font-size="18" font-weight="400">Premium React template with</text>
  <text x="60" y="388" fill="#64748b" font-family="system-ui,sans-serif" font-size="18" font-weight="400">dashboard, auth &amp; more.</text>

  <!-- CTA area -->
  <rect x="60" y="430" width="168" height="44" rx="22" fill="url(#og-grad)"/>
  <text x="144" y="457" fill="#ffffff" font-family="system-ui,sans-serif" font-size="15" font-weight="700" text-anchor="middle" letter-spacing="-0.01em">Get Template →</text>

  <!-- Price badge -->
  <rect x="244" y="430" width="80" height="44" rx="22" fill="#f1f5f9" fill-opacity="0.07"/>
  <rect x="244" y="430" width="80" height="44" rx="22" fill="none" stroke="#2a3550" stroke-width="1.5"/>
  <text x="284" y="448" fill="#94a3b8" font-family="system-ui,sans-serif" font-size="11" font-weight="600" text-anchor="middle" letter-spacing="0.04em">ONE-TIME</text>
  <text x="284" y="465" fill="#f1f5f9" font-family="system-ui,sans-serif" font-size="16" font-weight="700" text-anchor="middle">$49</text>

  <!-- Feature pills row -->
  <rect x="60" y="498" width="76" height="22" rx="11" fill="#6366f1" fill-opacity="0.12"/>
  <text x="98" y="513" fill="#818cf8" font-family="system-ui,sans-serif" font-size="11" font-weight="600" text-anchor="middle">React</text>

  <rect x="146" y="498" width="60" height="22" rx="11" fill="#0ea5e9" fill-opacity="0.10"/>
  <text x="176" y="513" fill="#60a5fa" font-family="system-ui,sans-serif" font-size="11" font-weight="600" text-anchor="middle">Vite</text>

  <rect x="216" y="498" width="80" height="22" rx="11" fill="#8b5cf6" fill-opacity="0.12"/>
  <text x="256" y="513" fill="#a78bfa" font-family="system-ui,sans-serif" font-size="11" font-weight="600" text-anchor="middle">Tailwind</text>

  <rect x="306" y="498" width="82" height="22" rx="11" fill="#059669" fill-opacity="0.10"/>
  <text x="347" y="513" fill="#34d399" font-family="system-ui,sans-serif" font-size="11" font-weight="600" text-anchor="middle">TypeSafe</text>

  <!-- Divider -->
  <line x1="60" y1="555" x2="480" y2="555" stroke="#1e2a40" stroke-width="1"/>
  <!-- Domain -->
  <text x="60" y="576" fill="#2d3d55" font-family="'SF Mono',monospace" font-size="12">turkialmalki.github.io/basebox</text>

  <!-- ── RIGHT SIDE: PRODUCT PANEL ── -->
  <g filter="url(#og-panel-shadow)">
    <rect x="560" y="60" width="600" height="510" rx="14" fill="url(#og-panel-g)"/>
    <g clip-path="url(#og-panel-clip)">

      <!-- Title bar -->
      <rect x="560" y="60" width="600" height="38" fill="#090b18"/>
      <line x1="560" y1="98" x2="1160" y2="98" stroke="#1a2240" stroke-width="1"/>
      <circle cx="586" cy="79" r="5" fill="#ff5f57"/>
      <circle cx="604" cy="79" r="5" fill="#febc2e"/>
      <circle cx="622" cy="79" r="5" fill="#28c840"/>
      <rect x="780" y="70" width="200" height="18" rx="9" fill="#12192e"/>
      <text x="880" y="82" fill="#2a3550" font-family="'SF Mono',monospace" font-size="9" text-anchor="middle">app.basebox.io</text>

      <!-- Sidebar -->
      <rect x="560" y="98" width="106" height="472" fill="#090b18"/>
      <line x1="666" y1="98" x2="666" y2="570" stroke="#1a2240" stroke-width="1"/>
      <!-- Brand -->
      <rect x="573" y="116" width="8" height="8" rx="2" fill="#6366f1"/>
      <rect x="584" y="116" width="8" height="8" rx="2" fill="#6366f1" fill-opacity="0.5"/>
      <rect x="573" y="127" width="8" height="8" rx="2" fill="#6366f1" fill-opacity="0.3"/>
      <rect x="584" y="127" width="8" height="8" rx="2" fill="#6366f1" fill-opacity="0.15"/>
      <text x="600" y="127" fill="#f1f5f9" font-family="system-ui,sans-serif" font-size="10" font-weight="700">Base</text>

      <!-- Nav active -->
      <rect x="568" y="148" width="90" height="26" rx="7" fill="#6366f1" fill-opacity="0.15"/>
      <rect x="568" y="156" width="3" height="10" rx="1.5" fill="#6366f1"/>
      <text x="580" y="165" fill="#6366f1" font-family="system-ui,sans-serif" font-size="10" font-weight="600">Overview</text>
      <text x="580" y="192" fill="#374151" font-family="system-ui,sans-serif" font-size="10">Analytics</text>
      <text x="580" y="215" fill="#374151" font-family="system-ui,sans-serif" font-size="10">Users</text>
      <text x="580" y="238" fill="#374151" font-family="system-ui,sans-serif" font-size="10">Revenue</text>

      <!-- Main area -->
      <rect x="666" y="98" width="494" height="472" fill="#111827"/>

      <!-- Top nav -->
      <line x1="666" y1="136" x2="1160" y2="136" stroke="#1a2240" stroke-width="1"/>
      <text x="682" y="122" fill="#6366f1" font-family="system-ui,sans-serif" font-size="10" font-weight="600">Overview</text>
      <rect x="682" y="130" width="44" height="2" rx="1" fill="#6366f1"/>
      <text x="740" y="122" fill="#374151" font-family="system-ui,sans-serif" font-size="10">Analytics</text>
      <text x="797" y="122" fill="#374151" font-family="system-ui,sans-serif" font-size="10">Users</text>
      <!-- Live pill -->
      <rect x="1086" y="112" width="44" height="18" rx="9" fill="#059669" fill-opacity="0.10"/>
      <circle cx="1097" cy="121" r="3" fill="#10b981"/>
      <text x="1104" y="125" fill="#059669" font-family="system-ui,sans-serif" font-size="9" font-weight="700">Live</text>
      <rect x="1136" y="112" width="18" height="18" rx="6" fill="url(#og-line-g)"/>

      <!-- Chart header -->
      <text x="682" y="158" fill="#64748b" font-family="system-ui,sans-serif" font-size="8" font-weight="600" letter-spacing="0.1em">MONTHLY RECURRING REVENUE</text>
      <text x="682" y="184" fill="#f1f5f9" font-family="system-ui,sans-serif" font-size="28" font-weight="800" letter-spacing="-0.04em">$48K</text>
      <rect x="682" y="192" width="100" height="14" rx="7" fill="#059669" fill-opacity="0.10"/>
      <text x="684" y="203" fill="#059669" font-family="system-ui,sans-serif" font-size="9" font-weight="700">↑ +22% vs last month</text>
      <!-- Tabs -->
      <rect x="1080" y="154" width="30" height="18" rx="6" fill="#1a2240"/>
      <text x="1095" y="166" fill="#64748b" font-family="system-ui,sans-serif" font-size="9" text-anchor="middle">30d</text>

      <!-- Chart area -->
      <rect x="672" y="218" width="480" height="180" rx="10" fill="#0f1523" stroke="#1a2240" stroke-width="1"/>
      <line x1="672" y1="268" x2="1152" y2="268" stroke="#1a2240" stroke-width="1" stroke-dasharray="3,6"/>
      <line x1="672" y1="318" x2="1152" y2="318" stroke="#1a2240" stroke-width="1" stroke-dasharray="3,6"/>
      <line x1="672" y1="368" x2="1152" y2="368" stroke="#1a2240" stroke-width="1" stroke-dasharray="3,6"/>

      <g clip-path="url(#og-chart-clip)">
        <path d="M572,395 C612,395 625,382 665,382 C708,382 721,368 761,368 C804,368 817,376 856,376 C899,376 912,356 952,356 C995,356 1007,335 1047,335 C1090,335 1103,313 1143,313"
          fill="none" stroke="#6366f1" fill-opacity="0"/>
        <path d="M572,395 C612,395 625,382 665,382 C708,382 721,368 761,368 C804,368 817,376 856,376 C899,376 912,356 952,356 C995,356 1007,335 1047,335 C1090,335 1103,313 1143,313 L1143,440 L572,440Z"
          fill="url(#og-fill-g)"/>
        <path d="M572,395 C612,395 625,382 665,382 C708,382 721,368 761,368 C804,368 817,376 856,376 C899,376 912,356 952,356 C995,356 1007,335 1047,335 C1090,335 1103,313 1143,313"
          fill="none" stroke="#6366f1" stroke-width="6" stroke-opacity="0.15" stroke-linecap="round"/>
        <path d="M572,395 C612,395 625,382 665,382 C708,382 721,368 761,368 C804,368 817,376 856,376 C899,376 912,356 952,356 C995,356 1007,335 1047,335 C1090,335 1103,313 1143,313"
          fill="none" stroke="url(#og-line-g)" stroke-width="2" stroke-linecap="round"/>
        <circle cx="1143" cy="313" r="8" fill="#6366f1" fill-opacity="0.12"/>
        <circle cx="1143" cy="313" r="3.5" fill="#6366f1" stroke="#0f1523" stroke-width="2" filter="url(#og-glow)"/>
      </g>

      <!-- KPI mini cards -->
      <rect x="672" y="410" width="112" height="78" rx="10" fill="#0f1523" stroke="#1a2240" stroke-width="1"/>
      <rect x="672" y="434" width="3" height="32" rx="1.5" fill="#818cf8"/>
      <text x="684" y="428" fill="#4b5563" font-family="system-ui,sans-serif" font-size="8" font-weight="600">MRR</text>
      <text x="684" y="460" fill="#f1f5f9" font-family="system-ui,sans-serif" font-size="18" font-weight="700">$48K</text>
      <rect x="724" y="420" width="44" height="14" rx="7" fill="#818cf8" fill-opacity="0.12"/>
      <text x="746" y="431" fill="#818cf8" font-family="system-ui,sans-serif" font-size="8" font-weight="700" text-anchor="middle">↑ +22%</text>
      <polyline points="684,478 692,472 700,466 708,460 716,452 724,444 732,436 740,428 748,420 756,412 764,406" fill="none" stroke="#818cf8" stroke-width="1.5" stroke-linecap="round" stroke-linejoin="round"/>

      <rect x="794" y="410" width="112" height="78" rx="10" fill="#0f1523" stroke="#1a2240" stroke-width="1"/>
      <rect x="794" y="434" width="3" height="32" rx="1.5" fill="#34d399"/>
      <text x="806" y="428" fill="#4b5563" font-family="system-ui,sans-serif" font-size="8" font-weight="600">USERS</text>
      <text x="806" y="460" fill="#f1f5f9" font-family="system-ui,sans-serif" font-size="18" font-weight="700">12.4K</text>
      <rect x="846" y="420" width="44" height="14" rx="7" fill="#34d399" fill-opacity="0.12"/>
      <text x="868" y="431" fill="#34d399" font-family="system-ui,sans-serif" font-size="8" font-weight="700" text-anchor="middle">↑ +18%</text>
      <polyline points="806,478 814,472 822,467 830,461 838,454 846,446 854,438 862,430 870,422 878,416 886,410" fill="none" stroke="#34d399" stroke-width="1.5" stroke-linecap="round" stroke-linejoin="round"/>

      <rect x="916" y="410" width="112" height="78" rx="10" fill="#0f1523" stroke="#1a2240" stroke-width="1"/>
      <rect x="916" y="434" width="3" height="32" rx="1.5" fill="#60a5fa"/>
      <text x="928" y="428" fill="#4b5563" font-family="system-ui,sans-serif" font-size="8" font-weight="600">CONV.</text>
      <text x="928" y="460" fill="#f1f5f9" font-family="system-ui,sans-serif" font-size="18" font-weight="700">4.8%</text>
      <rect x="964" y="420" width="48" height="14" rx="7" fill="#60a5fa" fill-opacity="0.12"/>
      <text x="988" y="431" fill="#60a5fa" font-family="system-ui,sans-serif" font-size="8" font-weight="700" text-anchor="middle">↑ +1.2%</text>
      <polyline points="928,478 936,472 944,467 952,462 960,455 968,449 976,443 984,436 992,429 1000,422 1008,416" fill="none" stroke="#60a5fa" stroke-width="1.5" stroke-linecap="round" stroke-linejoin="round"/>

      <rect x="1038" y="410" width="112" height="78" rx="10" fill="#0f1523" stroke="#1a2240" stroke-width="1"/>
      <rect x="1038" y="434" width="3" height="32" rx="1.5" fill="#f472b6"/>
      <text x="1050" y="428" fill="#4b5563" font-family="system-ui,sans-serif" font-size="8" font-weight="600">CHURN</text>
      <text x="1050" y="460" fill="#f1f5f9" font-family="system-ui,sans-serif" font-size="18" font-weight="700">2.1%</text>
      <rect x="1090" y="420" width="48" height="14" rx="7" fill="#f472b6" fill-opacity="0.12"/>
      <text x="1114" y="431" fill="#f472b6" font-family="system-ui,sans-serif" font-size="8" font-weight="700" text-anchor="middle">↓ -0.4%</text>
      <polyline points="1050,478 1058,476 1066,479 1074,473 1082,467 1090,462 1098,456 1106,449 1114,442 1122,435 1130,428" fill="none" stroke="#f472b6" stroke-width="1.5" stroke-linecap="round" stroke-linejoin="round"/>

    </g>
    <!-- Panel border -->
    <rect x="560" y="60" width="600" height="510" rx="14" fill="none" stroke="#2a3550" stroke-width="1.5"/>
  </g>

  <!-- Floating accent: top-right of panel -->
  <g transform="translate(1110, 28)" filter="url(#og-float-shadow)">
    <rect width="140" height="54" rx="12" fill="#111827"/>
    <rect width="140" height="54" rx="12" fill="none" stroke="#6366f1" stroke-width="1" stroke-opacity="0.35"/>
    <circle cx="18" cy="18" r="5" fill="#10b981"/>
    <text x="30" y="14" fill="#94a3b8" font-family="system-ui,sans-serif" font-size="9" font-weight="600">Revenue Goal</text>
    <text x="30" y="28" fill="#64748b" font-family="system-ui,sans-serif" font-size="9">96% complete</text>
    <text x="14" y="46" fill="#f1f5f9" font-family="system-ui,sans-serif" font-size="15" font-weight="700">$48K / $50K</text>
  </g>

  <!-- Bottom watermark -->
  <text x="60" y="614" fill="#1e2a40" font-family="'SF Mono',monospace" font-size="11">baseBox — The Premium SaaS Template</text>

  <!-- Decorative corner accents -->
  <line x1="0" y1="0" x2="80" y2="0" stroke="#6366f1" stroke-width="1.5" stroke-opacity="0.20"/>
  <line x1="0" y1="0" x2="0" y2="80" stroke="#6366f1" stroke-width="1.5" stroke-opacity="0.20"/>
  <line x1="1200" y1="630" x2="1120" y2="630" stroke="#8b5cf6" stroke-width="1.5" stroke-opacity="0.20"/>
  <line x1="1200" y1="630" x2="1200" y2="550" stroke="#8b5cf6" stroke-width="1.5" stroke-opacity="0.20"/>
</svg>
